<?xml version="1.0" encoding="utf-8"?>
<!-- Generator: Adobe Illustrator 26.3.1, SVG Export Plug-In . SVG Version: 6.00 Build 0)  -->
<svg version="1.1" id="Layer_1" xmlns="http://www.w3.org/2000/svg" xmlns:xlink="http://www.w3.org/1999/xlink" x="0px" y="0px"
	 viewBox="0 0 1000 1000" style="enable-background:new 0 0 1000 1000;" xml:space="preserve">
<style type="text/css">
	.st0{fill:#E5E5E5;}
</style>
<g>
	<path class="st0" d="M861.4,494.9c0,1.8,0.1,3.7,0.1,5.5c0,63.8-16.7,121.5-50,173.1c-33.4,51.6-77.9,92.5-133.6,122.7
		c-55.7,30.1-116.3,45.2-181.9,45.2c-53.8,0-104.1-11-151.2-31.7c25.8-6.6,48.6-18,67.6-35.8c30.7-28.7,56.4-66.4,77-113.1
		c20.6-46.7,39.3-97,56.1-150.9c15.1-46.4,28.3-87.3,39.6-122.7c11.3-35.4,26.2-62.9,44.8-82.7c18.6-19.7,45.2-29.6,80-29.6
		c17.3,0,33.3,2.8,48.1,8.2c35.3-15.4,70.6-29.5,105.2-43.9c-12.9-16.4-26.9-32-42.3-46.5c-42.1-39.7-90.8-70.9-146.2-93.5
		c-55.4-22.6-115-33.9-178.8-33.9c-84.1,0-160.8,19.6-230.1,58.7c-69.3,39.2-124.6,91.6-165.8,157.5C59,347.4,38.4,420.4,38.4,500.4
		c0,60.3,11.9,116.7,35.7,169.2c23.8,52.5,56.7,98.6,98.8,138.4c42.1,39.7,90.6,70.9,145.7,93.5c55.1,22.6,114.3,33.9,177.5,33.9
		c84.7,0,161.8-19.6,231.5-58.7c45.6-25.7,84.5-57.7,117.9-94.8c26.2-22.7,49.3-50.9,68.3-86.2c31.3-58.3,47-123.1,47-194.5
		c0-2.9,0-5.7-0.1-8.6C927.8,492.8,895.1,495.4,861.4,494.9z M292.4,726.7c-33.1,0-61.8-10.7-86.1-32.2
		c-14.1-12.5-26.2-27.3-36.6-44.1c-24.4-45.4-37.3-95.2-37.3-150c0-62.1,16.2-118.9,48.7-170.6c32.5-51.6,76.1-93,130.9-124
		c54.8-31,116.2-46.5,184-46.5c56,0,108,11.6,156.6,33.3c-24,6.2-45.1,16.2-62.6,31c-30.2,25.5-55,61.6-74.4,108.3
		c-19.4,46.7-38.4,102-57,165.8c-11,37.1-22.8,73.2-35.2,108.3c-12.5,35.1-28.7,64-48.7,86.6C354.6,715.3,327.2,726.7,292.4,726.7z"
		/>
	<polygon class="st0" points="943.6,560 777.1,560 777.1,494.2 960.7,491.8 	"/>
</g>
</svg>
