<svg xmlns="http://www.w3.org/2000/svg" viewBox="0 0 922.34 870.13"><defs><style>.cls-1{fill:#14213d;}</style></defs><g id="Layer_2" data-name="Layer 2"><g id="Layer_1-2" data-name="Layer 1"><path class="cls-1" d="M823.05,429.52c0,1.85.09,3.69.09,5.54q0,95.7-50,173.15T639.54,730.91Q556,776.14,457.68,776.15a371,371,0,0,1-151.15-31.68c25.82-6.57,48.64-18,67.63-35.76q46.11-43.08,77-113.11a1430.63,1430.63,0,0,0,56.11-151Q529.92,375,546.87,322t44.82-82.66q27.84-29.58,80-29.58a138.2,138.2,0,0,1,48.1,8.23C755.16,202.58,790.45,188.39,825,174a421.73,421.73,0,0,0-42.33-46.54Q719.58,67.87,636.5,33.92T457.68,0Q331.5,0,227.54,58.73T61.78,216.24Q0,314.94,0,435.06,0,525.57,35.67,604.3a436.55,436.55,0,0,0,98.76,138.37q63.09,59.55,145.74,93.54t177.51,33.92q127,0,231.45-58.74a462.77,462.77,0,0,0,117.92-94.78c26.24-22.66,49.31-50.87,68.3-86.21q47-87.43,47-194.45c0-2.87-.05-5.71-.1-8.56C889.47,427.45,856.73,430,823.05,429.52Zm-569,231.78q-49.57,0-86.15-32.19c-14.13-12.47-26.18-27.33-36.61-44.08C106.92,539.67,94,489.87,94,435.06Q94,342,142.71,264.51t130.94-124Q355.88,94,457.68,94a378.14,378.14,0,0,1,156.6,33.35c-24,6.21-45.11,16.2-62.61,31q-45.28,38.28-74.41,108.32t-57,165.77Q403.75,488.12,385,540.77t-48.72,86.61Q306.28,661.28,254.07,661.3Z"/><polygon class="cls-1" points="905.23 494.63 738.77 494.63 738.77 428.82 922.34 426.4 905.23 494.63"/></g></g></svg>